<?xml version="1.0" encoding="UTF-8"?> <svg xmlns="http://www.w3.org/2000/svg" width="264.369" height="74.391" viewBox="0 0 264.369 74.391"> <defs> <style>.a{fill:#0f234a;}.b{fill:none;}.c{fill:#7a3086;}.d{fill:#00afe5;}.e{fill:#363080;}</style> </defs> <g transform="translate(0 0)"> <path class="a" d="M118.271,411.5h1.474v-.369c0-6.726-2.672-9.214-8.661-9.214-2.12,0-6.266.554-6.266,3.133v2.488H93.946V402.56c0-8.754,12.347-9.675,17.23-9.675,15.664,0,20.271,8.2,20.271,18.7V429.1a1.844,1.844,0,0,0,2.027,2.027h3.685v9.859h-10.5c-4.33,0-5.989-2.4-5.989-5.161a20.285,20.285,0,0,1,.092-2.027h-.184s-3.593,8.293-14.189,8.293c-8.385,0-16.033-5.252-16.033-14.651C90.352,412.694,110.623,411.5,118.271,411.5Zm-9.029,21.469c6.265,0,10.688-6.635,10.688-12.347v-1.105H117.9c-6.081,0-15.756.829-15.756,7.372C102.147,430.016,104.45,432.966,109.242,432.966Z" transform="translate(-90.353 -373.935)"></path> <path class="a" d="M265.981,401.254h-5.215v-10.4h5.215v-9.286c0-15.507,12.778-17.549,19.4-17.549a25.567,25.567,0,0,1,4.01.279v10.028a15.079,15.079,0,0,0-2.425-.186c-3.358,0-9.14.836-9.14,7.707v9.007h10.166v10.4H277.826v29.065H265.981Z" transform="translate(-152.054 -363.272)"></path> <g transform="translate(144.738 44.699)"> <path class="a" d="M318.915,454.238a6.83,6.83,0,0,0,5.42,2.657c2.238,0,4.3-1.119,4.3-3.287,0-4.407-10.072-3.428-10.072-9.059,0-3.007,2.518-4.546,5.981-4.546,1.5,0,4.931.665,4.931,2.972V444.3h-1.469v-.839c0-1.469-2.168-2.029-3.392-2.029-2.833,0-4.512,1.014-4.512,3.008,0,4.476,10.072,3.393,10.072,9.164,0,2.8-2.553,4.721-5.876,4.721a7.906,7.906,0,0,1-6.435-3.008Z" transform="translate(-317.866 -435.562)"></path> <path class="a" d="M343.316,464.09c1.679,0,2.728-1.5,3.427-3.148l1.259-2.9-6.33-15.214a1.217,1.217,0,0,0-1.329-.839h-.279v-1.329h.245c1.749,0,2.168.314,2.868,2.027l4.966,11.926c.35.84.594,1.644.594,1.644h.07s.245-.8.595-1.644l4.931-11.926c.7-1.713,1.119-2.027,2.868-2.027h.245v1.329h-.279a1.218,1.218,0,0,0-1.329.839l-8.079,19.41a4.8,4.8,0,0,1-4.441,3.252,4.573,4.573,0,0,1-3.5-1.644l.875-1.119A3.733,3.733,0,0,0,343.316,464.09Z" transform="translate(-325.753 -435.797)"></path> <path class="a" d="M369.908,454.238a6.83,6.83,0,0,0,5.421,2.657c2.238,0,4.3-1.119,4.3-3.287,0-4.407-10.072-3.428-10.072-9.059,0-3.007,2.518-4.546,5.981-4.546,1.5,0,4.931.665,4.931,2.972V444.3H379v-.839c0-1.469-2.168-2.029-3.392-2.029-2.833,0-4.512,1.014-4.512,3.008,0,4.476,10.072,3.393,10.072,9.164,0,2.8-2.553,4.721-5.876,4.721a7.906,7.906,0,0,1-6.435-3.008Z" transform="translate(-336.185 -435.562)"></path> <path class="a" d="M394.1,439.262h-2.308v-1.329H394.1v-4.861h1.469v4.861h4.582v1.329h-4.582v9.723c0,4.617,2.763,5.211,4.162,5.211a4.056,4.056,0,0,0,.8-.07v1.364a4.878,4.878,0,0,1-.875.071c-1.818,0-5.561-.665-5.561-6.47v-9.827Z" transform="translate(-344.425 -433.072)"></path> <path class="a" d="M415.892,440c4.756,0,7.134,3.742,7.134,7.974,0,.385-.07.944-.07.944H408.931c0,5.071,3.427,7.974,7.484,7.974a7.917,7.917,0,0,0,5.421-2.2l.8,1.224a9.528,9.528,0,0,1-6.226,2.414,8.791,8.791,0,0,1-9.023-9.128C407.393,443.292,411.415,440,415.892,440Zm5.6,7.554c-.176-4.266-2.728-6.19-5.631-6.19a6.8,6.8,0,0,0-6.819,6.19Z" transform="translate(-350.028 -435.562)"></path> <path class="a" d="M437.17,442.522a.685.685,0,0,0-.77-.77h-1.5v-1.329h1.714c1.434,0,2.028.594,2.028,1.923v.979c0,.8-.07,1.435-.07,1.435h.07A7.533,7.533,0,0,1,445.284,440c3.5,0,5.141,1.644,5.526,4.757h.069A7.339,7.339,0,0,1,457.524,440c4.511,0,5.84,2.658,5.84,6.819v8.989a.684.684,0,0,0,.769.769h1.5v1.329h-1.713c-1.434,0-2.029-.595-2.029-2.029v-8.533c0-3.288-.664-5.981-4.371-5.981-2.9,0-5.386,2.588-6.155,5.316a9.149,9.149,0,0,0-.35,2.694v8.533h-1.469V447.348c0-3.008-.42-5.981-4.267-5.981-3.112,0-5.56,2.728-6.365,5.631a8.679,8.679,0,0,0-.28,2.378v8.533h-1.469V442.522Z" transform="translate(-359.91 -435.562)"></path> <path class="a" d="M486.409,454.238a6.83,6.83,0,0,0,5.421,2.657c2.238,0,4.3-1.119,4.3-3.287,0-4.407-10.072-3.428-10.072-9.059,0-3.007,2.518-4.546,5.981-4.546,1.5,0,4.931.665,4.931,2.972V444.3H495.5v-.839c0-1.469-2.168-2.029-3.392-2.029-2.833,0-4.512,1.014-4.512,3.008,0,4.476,10.072,3.393,10.072,9.164,0,2.8-2.553,4.721-5.876,4.721a7.906,7.906,0,0,1-6.435-3.008Z" transform="translate(-378.038 -435.562)"></path> </g> <path class="b" d="M187.192,432.087c0,5.317,4.57,9.607,11.378,9.607,7.462,0,11.938-4.1,11.938-12.125v-7.181H199.317C191.949,422.387,187.192,425.652,187.192,432.087Z" transform="translate(-125.409 -384.443)"></path> <path class="c" d="M203.606,426.063c0,8.022-4.476,12.125-11.938,12.125-6.808,0-11.378-4.29-11.378-9.607,0-6.435,4.757-9.7,12.125-9.7h4c-8.893,0-15.181-2.811-18.476-5.494-.293-.239-.591-.495-.889-.759-5.476,3.087-9.075,9.882-9.075,16.7,0,11.191,9.327,19.866,23.69,19.866,14.923,0,23.783-8.953,23.783-22.477v-7.835H203.606Z" transform="translate(-118.477 -381.028)"></path> <path class="d" d="M197.626,390.554h-2.938c-7.928,0-10.073-4.943-10.073-8.766,0-5.783,4.57-8.861,10.166-8.861a20.93,20.93,0,0,1,4.383.559l2.892-9.513a41.547,41.547,0,0,0-8.674-1.119c-11.472,0-20.892,5.69-20.892,17.442,0,7.624,3.134,11.748,6.183,14.451.292-.165.586-.326.889-.469A43.124,43.124,0,0,1,197.626,390.554Z" transform="translate(-120.093 -362.853)"></path> <path class="e" d="M201.093,406.085a43.132,43.132,0,0,0-18.063,3.723c-.3.143-.6.3-.889.469.3.264.6.52.889.759,3.3,2.683,9.584,5.494,18.476,5.494h26.961V406.085Z" transform="translate(-123.607 -378.511)"></path> </g> </svg> 